<?xml version="1.0" encoding="UTF-8"?>
<!DOCTYPE svg PUBLIC "-//W3C//DTD SVG 1.1//EN" "http://www.w3.org/Graphics/SVG/1.1/DTD/svg11.dtd">
<svg xmlns="http://www.w3.org/2000/svg" version="1.1" width="512px" height="512px" style="shape-rendering:geometricPrecision; text-rendering:geometricPrecision; image-rendering:optimizeQuality; fill-rule:evenodd; clip-rule:evenodd" xmlns:xlink="http://www.w3.org/1999/xlink">
<g><path style="opacity:0.995" fill="#33658a" d="M 283.5,146.5 C 278.47,144.05 273.136,143.05 267.5,143.5C 266.167,143.5 264.833,143.5 263.5,143.5C 263.665,139.818 263.499,136.152 263,132.5C 262.535,131.069 261.701,129.903 260.5,129C 250.5,128 240.5,127 230.5,126C 227.059,124.224 223.892,122.057 221,119.5C 217.775,114.881 214.941,110.048 212.5,105C 208.286,102.731 204.453,103.231 201,106.5C 197.898,115.594 192.065,122.094 183.5,126C 163.885,127.284 144.218,127.951 124.5,128C 122.333,128.833 120.833,130.333 120,132.5C 119.501,136.486 119.334,140.486 119.5,144.5C 112.591,142.825 105.924,143.492 99.5,146.5C 87.6017,103.92 97.6017,67.4204 129.5,37C 160.47,13.6347 194.137,8.96807 230.5,23C 267.076,41.2747 286.409,70.9413 288.5,112C 287.967,123.693 286.301,135.193 283.5,146.5 Z"/></g>
<g><path style="opacity:0.989" fill="#c8d4d9" d="M 351.5,87.5 C 351.5,76.8333 351.5,66.1667 351.5,55.5C 351.163,51.0057 353.163,48.1724 357.5,47C 361.627,46.4803 364.794,47.9803 367,51.5C 367.167,58.1667 367.333,64.8333 367.5,71.5C 367.633,78.9336 367.133,86.267 366,93.5C 361.667,96.1667 357.333,96.1667 353,93.5C 351.872,91.6547 351.372,89.6547 351.5,87.5 Z"/></g>
<g><path style="opacity:0.989" fill="#c8d4d8" d="M 464.5,63.5 C 463.167,68.8333 463.167,74.1667 464.5,79.5C 464.807,84.3825 463.974,89.0492 462,93.5C 458.744,95.4285 455.244,95.9285 451.5,95C 449.667,94.5 448.5,93.3333 448,91.5C 447.333,78.1667 447.333,64.8333 448,51.5C 451.954,45.8447 456.621,45.178 462,49.5C 464.104,53.9217 464.937,58.5884 464.5,63.5 Z"/></g>
<g><path style="opacity:0.984" fill="#dbe9ee" d="M 351.5,55.5 C 351.5,66.1667 351.5,76.8333 351.5,87.5C 350.527,85.0521 350.194,82.3854 350.5,79.5C 345.34,78.9114 340.84,80.2447 337,83.5C 336.667,84.8333 336.333,86.1667 336,87.5C 335.333,106.167 335.333,124.833 336,143.5C 338.158,179.314 356.325,202.481 390.5,213C 427.975,219.345 455.475,205.845 473,172.5C 476.79,163.549 478.79,154.216 479,144.5C 479.667,125.5 479.667,106.5 479,87.5C 478.934,84.7244 477.768,82.5577 475.5,81C 471.914,79.8924 468.247,79.3924 464.5,79.5C 463.167,74.1667 463.167,68.8333 464.5,63.5C 479.367,61.0115 489.534,66.6782 495,80.5C 496.597,101.796 496.93,123.129 496,144.5C 494.262,182.171 476.428,209.004 442.5,225C 434.145,228.422 425.478,230.589 416.5,231.5C 416.832,269.004 416.498,306.337 415.5,343.5C 415.5,306.167 415.5,268.833 415.5,231.5C 410.167,231.5 404.833,231.5 399.5,231.5C 361.71,226.54 336.21,206.207 323,170.5C 320.373,162.033 319.04,153.366 319,144.5C 318.07,123.129 318.403,101.796 320,80.5C 325.466,66.6782 335.633,61.0115 350.5,63.5C 350.194,60.6146 350.527,57.9479 351.5,55.5 Z"/></g>
<g><path style="opacity:0.999" fill="#fcd4a5" d="M 267.5,143.5 C 266.432,144.434 265.099,144.768 263.5,144.5C 263.667,160.503 263.5,176.503 263,192.5C 262.128,197.606 260.961,202.606 259.5,207.5C 255.693,219.117 249.36,229.117 240.5,237.5C 207.841,261.366 175.175,261.366 142.5,237.5C 133.64,229.117 127.307,219.117 123.5,207.5C 122.039,202.606 120.872,197.606 120,192.5C 119.5,176.503 119.333,160.503 119.5,144.5C 119.334,140.486 119.501,136.486 120,132.5C 120.833,130.333 122.333,128.833 124.5,128C 144.218,127.951 163.885,127.284 183.5,126C 192.065,122.094 197.898,115.594 201,106.5C 204.453,103.231 208.286,102.731 212.5,105C 214.941,110.048 217.775,114.881 221,119.5C 223.892,122.057 227.059,124.224 230.5,126C 240.5,127 250.5,128 260.5,129C 261.701,129.903 262.535,131.069 263,132.5C 263.499,136.152 263.665,139.818 263.5,143.5C 264.833,143.5 266.167,143.5 267.5,143.5 Z"/></g>
<g><path style="opacity:0.986" fill="#fccd97" d="M 119.5,144.5 C 119.333,160.503 119.5,176.503 120,192.5C 120.872,197.606 122.039,202.606 123.5,207.5C 97.1821,202.891 85.3488,187.224 88,160.5C 89.8416,154.162 93.675,149.495 99.5,146.5C 105.924,143.492 112.591,142.825 119.5,144.5 Z"/></g>
<g><path style="opacity:0.985" fill="#fccd97" d="M 267.5,143.5 C 273.136,143.05 278.47,144.05 283.5,146.5C 294.465,153.538 298.299,163.538 295,176.5C 290.138,194.864 278.305,205.197 259.5,207.5C 260.961,202.606 262.128,197.606 263,192.5C 263.5,176.503 263.667,160.503 263.5,144.5C 265.099,144.768 266.432,144.434 267.5,143.5 Z"/></g>
<g><path style="opacity:0.996" fill="#c8d4d8" d="M 399.5,231.5 C 404.833,231.5 410.167,231.5 415.5,231.5C 415.5,268.833 415.5,306.167 415.5,343.5C 414.925,362.242 405.925,375.075 388.5,382C 381.574,383.339 374.574,383.839 367.5,383.5C 335.167,383.5 302.833,383.5 270.5,383.5C 271.661,378.114 271.661,372.78 270.5,367.5C 302.833,367.5 335.167,367.5 367.5,367.5C 381.823,368.929 391.99,363.262 398,350.5C 399.458,310.864 399.958,271.197 399.5,231.5 Z"/></g>
<g><path style="opacity:0.993" fill="#fdcd96" d="M 142.5,237.5 C 175.175,261.366 207.841,261.366 240.5,237.5C 240.5,248.833 240.5,260.167 240.5,271.5C 238.378,290.479 228.045,302.979 209.5,309C 189.704,314.879 171.704,311.546 155.5,299C 147.2,291.573 142.867,282.406 142.5,271.5C 142.5,260.167 142.5,248.833 142.5,237.5 Z"/></g>
<g><path style="opacity:0.998" fill="#fe6b6b" d="M 142.5,271.5 C 142.867,282.406 147.2,291.573 155.5,299C 171.704,311.546 189.704,314.879 209.5,309C 228.045,302.979 238.378,290.479 240.5,271.5C 289.192,265.306 327.026,282.306 354,322.5C 361.838,336.512 366.338,351.512 367.5,367.5C 335.167,367.5 302.833,367.5 270.5,367.5C 264.15,349.81 251.483,341.977 232.5,344C 214.113,350.266 205.946,363.099 208,382.5C 217.588,406.475 234.088,412.975 257.5,402C 263.963,397.364 268.296,391.198 270.5,383.5C 302.833,383.5 335.167,383.5 367.5,383.5C 367.5,404.833 367.5,426.167 367.5,447.5C 348.833,447.5 330.167,447.5 311.5,447.5C 311.5,463.5 311.5,479.5 311.5,495.5C 231.5,495.5 151.5,495.5 71.5,495.5C 71.5,479.5 71.5,463.5 71.5,447.5C 52.8333,447.5 34.1667,447.5 15.5,447.5C 15.3334,418.498 15.5,389.498 16,360.5C 25.6624,310.588 55.4957,281.088 105.5,272C 117.829,271.5 130.162,271.333 142.5,271.5 Z"/></g>
<g><path style="opacity:1" fill="#dbe7ec" d="M 270.5,367.5 C 271.661,372.78 271.661,378.114 270.5,383.5C 268.296,391.198 263.963,397.364 257.5,402C 234.088,412.975 217.588,406.475 208,382.5C 205.946,363.099 214.113,350.266 232.5,344C 251.483,341.977 264.15,349.81 270.5,367.5 Z"/></g>
<g><path style="opacity:1" fill="#c8d4d9" d="M 234.5,359.5 C 252.113,359.593 258.28,367.926 253,384.5C 246.705,391.914 239.205,393.414 230.5,389C 220.083,377.501 221.416,367.667 234.5,359.5 Z"/></g>
<g><path style="opacity:1" fill="#fdd4a5" d="M 15.5,447.5 C 34.1667,447.5 52.8333,447.5 71.5,447.5C 71.5,463.5 71.5,479.5 71.5,495.5C 53.4063,495.973 35.4063,495.473 17.5,494C 16.8742,493.25 16.3742,492.416 16,491.5C 15.5001,476.837 15.3334,462.17 15.5,447.5 Z"/></g>
<g><path style="opacity:1" fill="#fdd4a5" d="M 367.5,447.5 C 367.667,462.17 367.5,476.837 367,491.5C 366.626,492.416 366.126,493.25 365.5,494C 347.594,495.473 329.594,495.973 311.5,495.5C 311.5,479.5 311.5,463.5 311.5,447.5C 330.167,447.5 348.833,447.5 367.5,447.5 Z"/></g>
</svg>
